<svg xmlns="http://www.w3.org/2000/svg" viewBox="0 0 24 24" version="1.1">
	<path d="M10.668 1.033C6.39 1.304 3.12 2.648 2.231 4.5c-.11.23-.18.478-.214.755-.034.28-.034 13.2 0 13.5.207 1.83 2.682 3.346 6.491 3.974.454.075 1.233.167 1.86.22.507.042 2.757.042 3.264 0 .627-.053 1.406-.145 1.86-.22 3.811-.428 6.284-1.942 6.491-3.773.034-.302.034-13.246 0-13.525-.167-1.365-1.569-2.553-3.947-3.348-1.211-.405-2.618-.676-4.236-.817-.518-.045-2.59-.067-3.132-.033m0 1.008c-2.298.156-4.275.62-5.72 1.344-1.16.581-1.827 1.26-1.93 1.965-.089.612.35 1.277 1.23 1.862 1.033.687 2.529 1.206 4.356 1.512 1.141.191 2.022.259 3.384.26 1.105.001 1.61-.026 2.508-.131 3.462-.404 6.119-1.666 6.465-3.071.051-.207.049-.359-.007-.58-.082-.32-.215-.541-.517-.855-1.005-1.048-3.264-1.885-5.928-2.198-.838-.098-1.15-.115-2.34-.122-.653-.004-1.328.002-1.5.014M3 8.573c0 1.155.009 1.24.164 1.547.268.53.93 1.079 1.84 1.525 1.626.795 3.887 1.271 6.354 1.336 2.64.07 5.042-.286 7.042-1.03 1.424-.558 2.377-1.304 2.634-2.062.051-.15.053-.195.06-1.257l.008-1.101-.091.075c-.416.345-.888.651-1.411.915-2.967 1.499-8.017 1.915-12.091.997-1.393-.314-2.64-.787-3.516-1.334-.216-.135-.563-.386-.814-.59L3 7.53v1.043m.006 4.307c.007 1.2.013 1.378.048 1.48.23.663.856 1.24 1.92 1.769 3.664 1.822 10.388 1.822 14.052 0 .918-.457 1.535-.971 1.804-1.504.161-.32.154-.246.163-1.744l.008-1.364-.187.16c-1.254 1.07-3.604 1.886-6.284 2.183-.997.11-1.218.121-2.532.121-1.314 0-1.535-.011-2.532-.121-1.925-.213-3.682-.69-5-1.357-.456-.231-.991-.575-1.283-.825l-.187-.16.006 1.363M3 17.322c0 1.2.003 1.308.046 1.476.088.342.263.616.606.944 1.189 1.136 3.72 1.964 6.716 2.196.856.066 2.408.066 3.264 0 2.097-.162 3.982-.617 5.364-1.293 1.035-.506 1.726-1.132 1.938-1.756.052-.153.053-.185.06-1.51l.007-1.353-.091.076c-.556.461-1.149.82-1.88 1.137-4.36 1.893-11.628 1.619-15.166-.628-.208-.129-.55-.378-.775-.565L3 16.027v1.295" stroke="none" fill="currentColor" fill-rule="evenodd"></path>
</svg>
